<mxfile host="Electron" agent="Mozilla/5.0 (X11; Linux x86_64) AppleWebKit/537.36 (KHTML, like Gecko) draw.io/28.0.6 Chrome/138.0.7204.100 Electron/37.2.3 Safari/537.36" version="28.0.6">
  <diagram name="Page-1" id="ZYmLAm0HlIui8fgUe3YQ">
    <mxGraphModel dx="1374" dy="848" grid="1" gridSize="10" guides="1" tooltips="1" connect="1" arrows="1" fold="1" page="1" pageScale="1" pageWidth="850" pageHeight="1100" math="0" shadow="0">
      <root>
        <mxCell id="0" />
        <mxCell id="1" parent="0" />
        <mxCell id="GPVH0AHcHpRnAtyshe-j-49" style="edgeStyle=orthogonalEdgeStyle;rounded=0;orthogonalLoop=1;jettySize=auto;html=1;dashed=1;" parent="1" source="MMXveqQ3WvR2905AeYRN-4" target="GPVH0AHcHpRnAtyshe-j-48" edge="1">
          <mxGeometry relative="1" as="geometry">
            <mxPoint x="930" y="330" as="sourcePoint" />
          </mxGeometry>
        </mxCell>
        <mxCell id="GPVH0AHcHpRnAtyshe-j-28" value="dfd-payment" style="shape=ellipse;html=1;dashed=0;whiteSpace=wrap;perimeter=ellipsePerimeter;fillColor=#d5e8d4;strokeColor=#82b366;" parent="1" vertex="1">
          <mxGeometry x="20" y="20" width="120" height="120" as="geometry" />
        </mxCell>
        <mxCell id="GPVH0AHcHpRnAtyshe-j-29" style="edgeStyle=orthogonalEdgeStyle;rounded=0;orthogonalLoop=1;jettySize=auto;html=1;dashed=1;curved=1;" parent="1" source="GPVH0AHcHpRnAtyshe-j-28" target="GPVH0AHcHpRnAtyshe-j-32" edge="1">
          <mxGeometry relative="1" as="geometry" />
        </mxCell>
        <mxCell id="GPVH0AHcHpRnAtyshe-j-30" value="Жалобы" style="edgeStyle=orthogonalEdgeStyle;rounded=0;orthogonalLoop=1;jettySize=auto;html=1;curved=1;" parent="1" source="GPVH0AHcHpRnAtyshe-j-32" target="GPVH0AHcHpRnAtyshe-j-35" edge="1">
          <mxGeometry relative="1" as="geometry" />
        </mxCell>
        <mxCell id="GPVH0AHcHpRnAtyshe-j-32" value="Пациент" style="html=1;dashed=0;whiteSpace=wrap;" parent="1" vertex="1">
          <mxGeometry x="30" y="180" width="100" height="50" as="geometry" />
        </mxCell>
        <mxCell id="GPVH0AHcHpRnAtyshe-j-40" value="Данные пациента" style="edgeStyle=orthogonalEdgeStyle;rounded=0;orthogonalLoop=1;jettySize=auto;html=1;" parent="1" source="GPVH0AHcHpRnAtyshe-j-33" target="MMXveqQ3WvR2905AeYRN-1" edge="1">
          <mxGeometry relative="1" as="geometry" />
        </mxCell>
        <mxCell id="GPVH0AHcHpRnAtyshe-j-43" value="Результат осмотра" style="edgeStyle=orthogonalEdgeStyle;rounded=0;orthogonalLoop=1;jettySize=auto;html=1;curved=1;" parent="1" source="GPVH0AHcHpRnAtyshe-j-33" target="MMXveqQ3WvR2905AeYRN-6" edge="1">
          <mxGeometry x="0.2982" y="10" relative="1" as="geometry">
            <Array as="points">
              <mxPoint x="310" y="490" />
              <mxPoint x="565" y="490" />
            </Array>
            <mxPoint as="offset" />
          </mxGeometry>
        </mxCell>
        <mxCell id="GPVH0AHcHpRnAtyshe-j-46" value="Информация о потраченных&amp;nbsp;&lt;div&gt;расходных материалах&lt;/div&gt;" style="edgeStyle=orthogonalEdgeStyle;rounded=0;orthogonalLoop=1;jettySize=auto;html=1;curved=1;" parent="1" source="GPVH0AHcHpRnAtyshe-j-33" target="MMXveqQ3WvR2905AeYRN-8" edge="1">
          <mxGeometry x="0.4824" y="40" relative="1" as="geometry">
            <Array as="points">
              <mxPoint x="310" y="630" />
            </Array>
            <mxPoint as="offset" />
          </mxGeometry>
        </mxCell>
        <mxCell id="GPVH0AHcHpRnAtyshe-j-33" value="Врач" style="html=1;dashed=0;whiteSpace=wrap;" parent="1" vertex="1">
          <mxGeometry x="260" y="325" width="100" height="50" as="geometry" />
        </mxCell>
        <mxCell id="GPVH0AHcHpRnAtyshe-j-34" value="Информация о&amp;nbsp;&lt;div&gt;пациенте&lt;/div&gt;" style="edgeStyle=orthogonalEdgeStyle;rounded=0;orthogonalLoop=1;jettySize=auto;html=1;curved=1;" parent="1" source="GPVH0AHcHpRnAtyshe-j-35" target="GPVH0AHcHpRnAtyshe-j-33" edge="1">
          <mxGeometry relative="1" as="geometry">
            <mxPoint as="offset" />
          </mxGeometry>
        </mxCell>
        <mxCell id="GPVH0AHcHpRnAtyshe-j-35" value="1. Осмотр и обследование" style="shape=ellipse;html=1;dashed=0;whiteSpace=wrap;perimeter=ellipsePerimeter;gradientColor=none;" parent="1" vertex="1">
          <mxGeometry x="20" y="290" width="120" height="120" as="geometry" />
        </mxCell>
        <mxCell id="GPVH0AHcHpRnAtyshe-j-41" value="Excel-книга" style="edgeStyle=orthogonalEdgeStyle;rounded=0;orthogonalLoop=1;jettySize=auto;html=1;" parent="1" source="GPVH0AHcHpRnAtyshe-j-39" target="MMXveqQ3WvR2905AeYRN-2" edge="1">
          <mxGeometry relative="1" as="geometry">
            <mxPoint x="880" y="350" as="targetPoint" />
          </mxGeometry>
        </mxCell>
        <mxCell id="GPVH0AHcHpRnAtyshe-j-39" value="2.2. Изучение мед.карты и результатов анализов" style="shape=ellipse;html=1;dashed=0;whiteSpace=wrap;perimeter=ellipsePerimeter;gradientColor=none;" parent="1" vertex="1">
          <mxGeometry x="640" y="290" width="120" height="120" as="geometry" />
        </mxCell>
        <mxCell id="GPVH0AHcHpRnAtyshe-j-44" value="Excel с анализами" style="edgeStyle=orthogonalEdgeStyle;rounded=0;orthogonalLoop=1;jettySize=auto;html=1;curved=1;" parent="1" source="GPVH0AHcHpRnAtyshe-j-42" target="MMXveqQ3WvR2905AeYRN-2" edge="1">
          <mxGeometry x="-0.3103" y="10" relative="1" as="geometry">
            <mxPoint as="offset" />
            <mxPoint x="930" y="370" as="targetPoint" />
          </mxGeometry>
        </mxCell>
        <mxCell id="GPVH0AHcHpRnAtyshe-j-42" value="3.2. Назначение анализов" style="shape=ellipse;html=1;dashed=0;whiteSpace=wrap;perimeter=ellipsePerimeter;gradientColor=none;" parent="1" vertex="1">
          <mxGeometry x="640" y="430" width="120" height="120" as="geometry" />
        </mxCell>
        <mxCell id="GPVH0AHcHpRnAtyshe-j-47" value="Excel с расходами" style="edgeStyle=orthogonalEdgeStyle;rounded=0;orthogonalLoop=1;jettySize=auto;html=1;curved=1;" parent="1" source="GPVH0AHcHpRnAtyshe-j-45" target="MMXveqQ3WvR2905AeYRN-2" edge="1">
          <mxGeometry x="-0.4884" y="40" relative="1" as="geometry">
            <mxPoint as="offset" />
            <mxPoint x="930" y="370" as="targetPoint" />
          </mxGeometry>
        </mxCell>
        <mxCell id="GPVH0AHcHpRnAtyshe-j-45" value="4.2. Списание расходных материалов на обследование" style="shape=ellipse;html=1;dashed=0;whiteSpace=wrap;perimeter=ellipsePerimeter;gradientColor=none;" parent="1" vertex="1">
          <mxGeometry x="640" y="570" width="120" height="120" as="geometry" />
        </mxCell>
        <mxCell id="GPVH0AHcHpRnAtyshe-j-48" value="dfd-write-off" style="shape=ellipse;html=1;dashed=0;whiteSpace=wrap;perimeter=ellipsePerimeter;fillColor=#d5e8d4;strokeColor=#82b366;" parent="1" vertex="1">
          <mxGeometry x="1010" y="160" width="120" height="120" as="geometry" />
        </mxCell>
        <mxCell id="MMXveqQ3WvR2905AeYRN-3" style="edgeStyle=orthogonalEdgeStyle;rounded=0;orthogonalLoop=1;jettySize=auto;html=1;" edge="1" parent="1" source="MMXveqQ3WvR2905AeYRN-1" target="GPVH0AHcHpRnAtyshe-j-39">
          <mxGeometry relative="1" as="geometry" />
        </mxCell>
        <mxCell id="MMXveqQ3WvR2905AeYRN-1" value="2.1. RBAC" style="ellipse;whiteSpace=wrap;html=1;aspect=fixed;fillColor=#ffe6cc;strokeColor=#d79b00;" vertex="1" parent="1">
          <mxGeometry x="500" y="305" width="90" height="90" as="geometry" />
        </mxCell>
        <mxCell id="MMXveqQ3WvR2905AeYRN-5" style="edgeStyle=orthogonalEdgeStyle;rounded=0;orthogonalLoop=1;jettySize=auto;html=1;" edge="1" parent="1" source="MMXveqQ3WvR2905AeYRN-2" target="MMXveqQ3WvR2905AeYRN-4">
          <mxGeometry relative="1" as="geometry" />
        </mxCell>
        <mxCell id="MMXveqQ3WvR2905AeYRN-2" value="Шифрование" style="ellipse;whiteSpace=wrap;html=1;aspect=fixed;fillColor=#ffe6cc;strokeColor=#d79b00;" vertex="1" parent="1">
          <mxGeometry x="880" y="305" width="90" height="90" as="geometry" />
        </mxCell>
        <mxCell id="MMXveqQ3WvR2905AeYRN-4" value="Файловое хранилище" style="html=1;dashed=0;whiteSpace=wrap;shape=partialRectangle;right=0;" vertex="1" parent="1">
          <mxGeometry x="1020" y="330" width="100" height="40" as="geometry" />
        </mxCell>
        <mxCell id="MMXveqQ3WvR2905AeYRN-7" style="edgeStyle=orthogonalEdgeStyle;rounded=0;orthogonalLoop=1;jettySize=auto;html=1;entryX=0;entryY=0.5;entryDx=0;entryDy=0;" edge="1" parent="1" source="MMXveqQ3WvR2905AeYRN-6" target="GPVH0AHcHpRnAtyshe-j-42">
          <mxGeometry relative="1" as="geometry" />
        </mxCell>
        <mxCell id="MMXveqQ3WvR2905AeYRN-6" value="3.1. RBAC" style="ellipse;whiteSpace=wrap;html=1;aspect=fixed;fillColor=#ffe6cc;strokeColor=#d79b00;" vertex="1" parent="1">
          <mxGeometry x="500" y="445" width="90" height="90" as="geometry" />
        </mxCell>
        <mxCell id="MMXveqQ3WvR2905AeYRN-9" style="edgeStyle=orthogonalEdgeStyle;rounded=0;orthogonalLoop=1;jettySize=auto;html=1;entryX=0;entryY=0.5;entryDx=0;entryDy=0;" edge="1" parent="1" source="MMXveqQ3WvR2905AeYRN-8" target="GPVH0AHcHpRnAtyshe-j-45">
          <mxGeometry relative="1" as="geometry" />
        </mxCell>
        <mxCell id="MMXveqQ3WvR2905AeYRN-8" value="4.1. RBAC" style="ellipse;whiteSpace=wrap;html=1;aspect=fixed;fillColor=#ffe6cc;strokeColor=#d79b00;" vertex="1" parent="1">
          <mxGeometry x="500" y="585" width="90" height="90" as="geometry" />
        </mxCell>
      </root>
    </mxGraphModel>
  </diagram>
</mxfile>
